<svg width="200" height="226" viewBox="0 0 200 226" fill="none" xmlns="http://www.w3.org/2000/svg">
  <path
    d="M74.5792 4H99.5792H124.579C152.079 4 216.479 34.6 188.079 129C194.246 146.667 196.079 181.6 154.079 180V210.5C149.579 215.833 132.579 222 99.5792 222C66.5792 222 49.5792 215.833 45.0792 210.5V180C3.07925 181.6 4.91257 146.667 11.0792 129C-17.3208 34.6 47.0792 4 74.5792 4Z"
    fill="white" stroke="black" stroke-width="8" />
  <path
    d="M55.3387 105H37.291C33.7581 105 30.5906 107.31 30.0786 110.806C28.1473 123.993 30.8756 144.5 55.3387 144.5C79.8018 144.5 82.5301 123.993 80.5988 110.806C80.0868 107.31 76.9193 105 73.3864 105H55.3387Z"
    fill="#9F9F9F" />
  <path
    d="M55.3387 105H37.291C33.7581 105 30.5906 107.31 30.0786 110.806C28.1473 123.993 30.8756 144.5 55.3387 144.5C79.8018 144.5 82.5301 123.993 80.5988 110.806C80.0868 107.31 76.9193 105 73.3864 105H55.3387Z"
    stroke="black" stroke-width="8" />
  <path
    d="M55.3387 105H37.291C33.7581 105 30.5906 107.31 30.0786 110.806C28.1473 123.993 30.8756 144.5 55.3387 144.5C79.8018 144.5 82.5301 123.993 80.5988 110.806C80.0868 107.31 76.9193 105 73.3864 105H55.3387Z"
    stroke="black" stroke-width="8" />
  <path
    d="M144.598 105H126.55C123.017 105 119.85 107.31 119.338 110.806C117.407 123.993 120.135 144.5 144.598 144.5C169.061 144.5 171.789 123.993 169.858 110.806C169.346 107.31 166.179 105 162.646 105H144.598Z"
    fill="#9F9F9F" />
  <path
    d="M144.598 105H126.55C123.017 105 119.85 107.31 119.338 110.806C117.407 123.993 120.135 144.5 144.598 144.5C169.061 144.5 171.789 123.993 169.858 110.806C169.346 107.31 166.179 105 162.646 105H144.598Z"
    stroke="black" stroke-width="8" />
  <path
    d="M144.598 105H126.55C123.017 105 119.85 107.31 119.338 110.806C117.407 123.993 120.135 144.5 144.598 144.5C169.061 144.5 171.789 123.993 169.858 110.806C169.346 107.31 166.179 105 162.646 105H144.598Z"
    stroke="black" stroke-width="8" />
  <path
    d="M86.0277 169.986L97.8212 148.241C98.5779 146.846 100.581 146.846 101.337 148.241L113.131 169.986C114 171.588 112.447 173.423 110.723 172.831L100.229 169.223C99.808 169.079 99.3504 169.079 98.9291 169.223L88.4359 172.831C86.7117 173.423 85.1584 171.588 86.0277 169.986Z"
    stroke="black" stroke-width="8" />
  <path
    d="M86.0277 169.986L97.8212 148.241C98.5779 146.846 100.581 146.846 101.337 148.241L113.131 169.986C114 171.588 112.447 173.423 110.723 172.831L100.229 169.223C99.808 169.079 99.3504 169.079 98.9291 169.223L88.4359 172.831C86.7117 173.423 85.1584 171.588 86.0277 169.986Z"
    stroke="black" stroke-width="8" />
  <rect x="96" y="193" width="8" height="29" rx="2" fill="black" />
  <rect x="121" y="193" width="8" height="29" rx="2" fill="black" />
  <rect x="71" y="193" width="8" height="29" rx="2" fill="black" />
</svg>
