<svg width="1612" height="86" viewBox="0 0 1612 86" fill="none" xmlns="http://www.w3.org/2000/svg">
  <path
    d="M1612 56.4447C1298.67 56.4447 1199.03 9.88506 794.918 10.0002C391.918 10.0002 291.168 56.4447 0 56.4447V86.0002H1612C1612 48.384 1612 67.576 1612 56.4447Z"
    fill="rgba(0, 0, 0, 0.2)" />

  <path fill-rule="evenodd" clip-rule="evenodd"
    d="M1259.45 25.4159C1365.57 36.2516 1465.39 46.4447 1612 46.4447V56.4447C1465.39 56.4447 1365.57 46.2517 1259.45 35.4159C1138.77 23.0931 1009.95 9.93897 794.917 10.0002C577.08 10.0002 447.554 23.5706 328.531 36.0406C227.362 46.6401 133.78 56.4447 0 56.4447V46.4447C133.78 46.4447 227.362 36.6401 328.531 26.0406C447.554 13.5705 577.08 0.000213244 794.917 0.000213244C1009.95 -0.0610596 1138.77 13.093 1259.45 25.4159Z"
    fill="rgba(255, 255, 255, 0.5)" />
</svg>
