<svg width="344" height="248" viewBox="0 0 344 248" fill="none" xmlns="http://www.w3.org/2000/svg">
    <path
        d="M66.537 143.657C77.0445 116.075 80.2186 75.7961 80.4922 59.1045L91.9848 56.6418C109.059 87.5075 125.368 105.075 131.388 110L149.447 143.657H66.537Z"
        fill="#BF9B30" />
    <circle cx="84.5967" cy="49.2538" r="14.7761" fill="#BF9B30" />
    <path
        d="M279.149 143.657C268.642 116.075 265.467 75.7961 265.194 59.1045L253.701 56.6418C236.627 87.5075 220.318 105.075 214.298 110L196.239 143.657H279.149Z"
        fill="#BF9B30" />
    <circle r="14.7761" transform="matrix(-1 0 0 1 261.089 49.2538)" fill="#BF9B30" />
    <path
        d="M20.567 103.433C36.9849 129.702 39.4476 174.577 38.6267 193.732L180.642 193.732L180.642 28.7314L160.94 28.7314C127.448 178.463 61.6118 134.353 32.8804 93.5822L20.567 103.433Z"
        fill="#FFCF40" />
    <path
        d="M325.119 104.254C308.701 130.523 306.239 175.398 307.06 194.552L165.045 194.552L165.045 29.5524L184.746 29.5524C218.239 179.284 284.075 135.174 312.806 94.4032L325.119 104.254Z"
        fill="#FFCF40" />
    <circle cx="18.1043" cy="87.836" r="17.2388" fill="#FFCF40" />
    <circle cx="172.433" cy="17.2388" r="17.2388" fill="#FFCF40" />
    <circle r="17.2388" transform="matrix(-1 0 0 1 326.761 87.836)" fill="#FFCF40" />
    <rect x="38.6266" y="193.731" width="267.612" height="54.1791" fill="#FFCF40" />
    <path d="M188.851 128.06H155.194L138.776 156.791L155.194 186.344H188.851L206.09 156.791L188.851 128.06Z"
        fill="#79ADA4" />
    <path d="M181.222 139.553H161.521L151.91 156.549L161.521 174.03H181.222L191.313 156.549L181.222 139.553Z"
        fill="#B8E2D5" />
    <circle cx="39.4475" cy="238.881" r="9.02986" fill="#FFDC73" />
    <circle cx="305.418" cy="238.881" r="9.02986" fill="#FFDC73" />
    <circle cx="39.4475" cy="202.761" r="9.02986" fill="#FFDC73" />
    <circle cx="305.418" cy="202.761" r="9.02986" fill="#FFDC73" />
    <rect x="38.6266" y="193.731" width="267.612" height="18.0597" fill="#FFDC73" />
    <rect x="38.6266" y="229.851" width="267.612" height="18.0597" fill="#FFDC73" />
</svg>